{
  "accessors": [
    {
      "bufferView": 2,
      "componentType": 5126,
      "count": 63973,
      "max": [
        1402.810302734375,
        14351.552734375,
        -2152.4912109375
      ],
      "min": [
        -12204.724609375,
        -53.87960433959961,
        -4918.11669921875
      ],
      "type": "VEC3"
    },
    {
      "bufferView": 2,
      "byteOffset": 767676,
      "componentType": 5126,
      "count": 63973,
      "max": [
        1.0,
        1.0,
        1.0
      ],
      "min": [
        -1.0,
        -1.0,
        -1.0
      ],
      "type": "VEC3"
    },
    {
      "bufferView": 1,
      "componentType": 5126,
      "count": 63973,
      "max": [
        0.9994519352912903,
        0.9994281530380249
      ],
      "min": [
        0.00067415542434901,
        0.0006742447731085122
      ],
      "type": "VEC2"
    },
    {
      "bufferView": 1,
      "byteOffset": 511784,
      "componentType": 5126,
      "count": 63973,
      "max": [
        0.9994519352912903,
        0.9994281530380249
      ],
      "min": [
        0.00067415542434901,
        0.0006742447731085122
      ],
      "type": "VEC2"
    },
    {
      "bufferView": 1,
      "byteOffset": 1023568,
      "componentType": 5126,
      "count": 63973,
      "max": [
        0.9994519352912903,
        0.9994281530380249
      ],
      "min": [
        0.00067415542434901,
        0.0006742447731085122
      ],
      "type": "VEC2"
    },
    {
      "bufferView": 1,
      "byteOffset": 1535352,
      "componentType": 5126,
      "count": 63973,
      "max": [
        0.9994519352912903,
        0.9994281530380249
      ],
      "min": [
        0.00067415542434901,
        0.0006742447731085122
      ],
      "type": "VEC2"
    },
    {
      "bufferView": 1,
      "byteOffset": 2047136,
      "componentType": 5126,
      "count": 63973,
      "max": [
        0.9994519352912903,
        0.9994281530380249
      ],
      "min": [
        0.00067415542434901,
        0.0006742447731085122
      ],
      "type": "VEC2"
    },
    {
      "bufferView": 1,
      "byteOffset": 2558920,
      "componentType": 5126,
      "count": 63973,
      "max": [
        0.9994519352912903,
        0.9994281530380249
      ],
      "min": [
        0.00067415542434901,
        0.0006742447731085122
      ],
      "type": "VEC2"
    },
    {
      "bufferView": 1,
      "byteOffset": 3070704,
      "componentType": 5126,
      "count": 63973,
      "max": [
        0.9994519352912903,
        0.9994281530380249
      ],
      "min": [
        0.00067415542434901,
        0.0006742447731085122
      ],
      "type": "VEC2"
    },
    {
      "bufferView": 1,
      "byteOffset": 3582488,
      "componentType": 5126,
      "count": 63973,
      "max": [
        0.9994519352912903,
        0.9994281530380249
      ],
      "min": [
        0.00067415542434901,
        0.0006742447731085122
      ],
      "type": "VEC2"
    },
    {
      "bufferView": 1,
      "byteOffset": 4094272,
      "componentType": 5126,
      "count": 63973,
      "max": [
        0.9994519352912903,
        0.9994281530380249
      ],
      "min": [
        0.00067415542434901,
        0.0006742447731085122
      ],
      "type": "VEC2"
    },
    {
      "bufferView": 1,
      "byteOffset": 4606056,
      "componentType": 5126,
      "count": 63973,
      "max": [
        0.9994519352912903,
        0.9994281530380249
      ],
      "min": [
        0.00067415542434901,
        0.0006742447731085122
      ],
      "type": "VEC2"
    },
    {
      "bufferView": 0,
      "componentType": 5125,
      "count": 173895,
      "type": "SCALAR"
    }
  ],
  "asset": {
    "extras": {
      "author": "One80 Solar (https://sketchfab.com/one80solar)",
      "license": "CC-BY-4.0 (http://creativecommons.org/licenses/by/4.0/)",
      "source": "https://sketchfab.com/3d-models/man-lift-de3173ee31fd43f9ba2fc53fb8a1532d",
      "title": "Man Lift"
    },
    "generator": "Sketchfab-12.68.0",
    "version": "2.0"
  },
  "bufferViews": [
    {
      "buffer": 0,
      "byteLength": 695580,
      "name": "floatBufferViews",
      "target": 34963
    },
    {
      "buffer": 0,
      "byteLength": 5117840,
      "byteOffset": 695580,
      "byteStride": 8,
      "name": "floatBufferViews",
      "target": 34962
    },
    {
      "buffer": 0,
      "byteLength": 1535352,
      "byteOffset": 5813420,
      "byteStride": 12,
      "name": "floatBufferViews",
      "target": 34962
    }
  ],
  "buffers": [
    {
      "byteLength": 7348772,
      "uri": "scene.bin"
    }
  ],
  "images": [
    {
      "uri": "textures/Material_262943_baseColor.png"
    },
    {
      "uri": "textures/Material_262943_metallicRoughness.png"
    }
  ],
  "materials": [
    {
      "doubleSided": true,
      "name": "Material_262943",
      "pbrMetallicRoughness": {
        "baseColorTexture": {
          "index": 0
        },
        "metallicRoughnessTexture": {
          "index": 1
        },
        "roughnessFactor": 0.733422256097561
      }
    }
  ],
  "meshes": [
    {
      "name": "ManLift_Material #262943_0",
      "primitives": [
        {
          "attributes": {
            "NORMAL": 1,
            "POSITION": 0,
            "TEXCOORD_0": 2,
            "TEXCOORD_1": 3,
            "TEXCOORD_2": 4,
            "TEXCOORD_3": 5,
            "TEXCOORD_4": 6,
            "TEXCOORD_5": 7,
            "TEXCOORD_6": 8,
            "TEXCOORD_7": 9,
            "TEXCOORD_8": 10,
            "TEXCOORD_9": 11
          },
          "indices": 12,
          "material": 0,
          "mode": 4
        }
      ]
    }
  ],
  "nodes": [
    {
      "children": [
        1
      ],
      "matrix": [
        1.0,
        0.0,
        0.0,
        0.0,
        0.0,
        2.220446049250313e-16,
        -1.0,
        0.0,
        0.0,
        1.0,
        2.220446049250313e-16,
        0.0,
        0.0,
        0.0,
        0.0,
        1.0
      ],
      "name": "Sketchfab_model"
    },
    {
      "children": [
        2
      ],
      "matrix": [
        1.0,
        0.0,
        0.0,
        0.0,
        0.0,
        0.0,
        1.0,
        0.0,
        0.0,
        -1.0,
        0.0,
        0.0,
        0.0,
        0.0,
        0.0,
        1.0
      ],
      "name": "70a1a74915324e24be8d28fc70b28274.fbx"
    },
    {
      "children": [
        3
      ],
      "name": "RootNode"
    },
    {
      "children": [
        4
      ],
      "matrix": [
        2.2781615915863447e-11,
        -3.4488971813243415e-27,
        -0.0005211826064623887,
        0.0,
        2.2781615826087302e-11,
        0.0005211826064623887,
        9.95816079148904e-19,
        0.0,
        0.0005211826064623883,
        -2.2781615826087325e-11,
        2.2781615915863447e-11,
        0.0,
        0.019743787124753,
        3.7631378173828125,
        1.9089305400848389,
        1.0
      ],
      "name": "ManLift"
    },
    {
      "children": [
        5
      ],
      "matrix": [
        1.0,
        0.0,
        -0.0,
        0.0,
        0.0,
        1.0,
        0.0,
        0.0,
        0.0,
        0.0,
        1.0,
        0.0,
        5400.95751953125,
        -7148.8369140625,
        3535.30419921875,
        1.0
      ],
      "name": "Object_4"
    },
    {
      "mesh": 0,
      "name": "ManLift_Material #262943_0"
    }
  ],
  "samplers": [
    {
      "magFilter": 9729,
      "minFilter": 9987,
      "wrapS": 10497,
      "wrapT": 10497
    }
  ],
  "scene": 0,
  "scenes": [
    {
      "name": "Sketchfab_Scene",
      "nodes": [
        0
      ]
    }
  ],
  "textures": [
    {
      "sampler": 0,
      "source": 0
    },
    {
      "sampler": 0,
      "source": 1
    }
  ]
}
